<svg xmlns="http://www.w3.org/2000/svg" viewBox="223.5 256.25 716.5 140.25">
  <path d="M913.50,366.00 L913.00,366.75 L917.00,366.50 L918.50,367.25 L920.25,369.50 L920.50,372.50 L919.50,373.25 L914.50,373.25 L912.75,374.25 L911.25,376.25 L911.25,379.75 L914.25,382.50 L918.25,382.50 L919.50,381.50 L921.25,382.50 L921.50,371.25 L920.75,368.75 L918.50,366.25 Z M919.50,373.75 L920.75,375.50 L920.00,380.00 L917.25,382.00 L913.25,381.00 L911.75,378.75 L912.25,376.00 L915.50,373.75 Z" fill="#2f2f2f" fill-rule="evenodd" />
  <path d="M885.50,366.00 L882.00,368.25 L880.50,370.25 L879.75,372.75 L880.00,377.00 L881.25,379.50 L884.50,382.25 L890.00,382.50 L892.50,380.75 L892.25,380.00 L889.25,381.75 L885.75,381.75 L882.25,379.25 L880.50,376.25 L880.75,371.50 L884.25,367.50 L888.00,366.50 L892.75,368.50 L892.50,367.50 L890.50,366.25 Z" fill="#2f2f2f" fill-rule="evenodd" />
  <path d="M864.75,366.00 L864.25,366.75 L869.50,367.00 L871.25,369.25 L872.00,372.25 L870.50,373.25 L865.75,373.25 L863.75,374.50 L862.50,376.25 L862.25,379.00 L863.50,381.25 L865.25,382.50 L868.00,382.75 L870.50,381.75 L872.50,382.50 L872.25,369.25 L869.75,366.25 Z M870.75,373.75 L872.00,375.00 L871.25,380.00 L868.50,382.00 L865.00,381.25 L863.00,378.50 L863.75,375.75 L866.75,373.75 Z" fill="#2f2f2f" fill-rule="evenodd" />
  <path d="M816.50,366.25 L813.75,368.25 L812.25,370.50 L811.50,373.50 L812.00,377.25 L813.50,380.00 L816.25,382.25 L821.75,382.50 L825.50,379.50 L826.50,377.50 L826.50,371.00 L825.25,368.75 L822.00,366.25 Z M818.75,366.50 L822.75,367.75 L825.25,370.50 L826.25,373.25 L826.00,376.50 L824.50,379.25 L820.25,382.00 L816.00,381.00 L812.50,376.50 L812.50,372.25 L813.75,369.75 L816.50,367.25 Z" fill="#2f2f2f" fill-rule="evenodd" />
  <path d="M796.75,366.00 L796.25,366.75 L801.50,367.00 L803.50,369.75 L804.00,372.25 L802.50,373.25 L797.75,373.25 L796.00,374.25 L794.50,376.25 L794.25,379.00 L795.25,381.00 L797.25,382.50 L800.00,382.75 L802.25,381.75 L804.50,382.50 L804.25,369.25 L803.25,367.50 L801.00,366.00 Z M802.75,373.75 L804.00,375.00 L803.25,380.00 L800.50,382.00 L797.25,381.50 L795.00,378.75 L795.50,376.00 L798.75,373.75 Z" fill="#2f2f2f" fill-rule="evenodd" />
  <path d="M779.00,366.00 L776.00,367.50 L774.25,369.50 L773.25,371.75 L773.25,376.75 L775.25,380.25 L779.25,382.50 L780.25,384.50 L781.25,384.75 L781.50,382.75 L783.50,382.50 L786.25,380.50 L785.25,380.25 L782.00,382.00 L778.00,381.25 L774.50,377.50 L773.75,373.00 L775.50,369.50 L779.25,366.75 L781.75,366.50 L785.50,368.50 L786.25,368.00 L784.00,366.25 Z" fill="#2f2f2f" fill-rule="evenodd" />
  <path d="M757.75,366.00 L757.25,366.75 L761.00,366.50 L763.25,367.75 L764.50,370.00 L764.75,372.50 L763.75,373.25 L758.00,373.50 L755.25,376.75 L755.25,379.25 L758.25,382.50 L762.50,382.50 L763.25,381.75 L765.50,382.50 L765.50,370.00 L763.00,366.50 Z M763.75,373.75 L765.00,375.25 L764.25,380.00 L761.50,382.00 L759.25,382.00 L757.50,381.00 L756.00,378.75 L756.50,376.00 L759.75,373.75 Z" fill="#2f2f2f" fill-rule="evenodd" />
  <path d="M736.25,366.25 L745.25,366.75 L745.75,367.75 L735.50,382.25 L747.50,382.50 L747.25,381.50 L738.50,381.75 L737.50,381.00 L747.50,367.25 L747.50,366.25 Z" fill="#2f2f2f" fill-rule="evenodd" />
  <path d="M706.25,366.25 L706.25,382.25 L707.25,382.25 L707.50,369.50 L710.00,367.00 L713.00,366.50 L715.75,368.50 L717.00,371.00 L717.50,382.50 L717.50,370.00 L716.50,368.00 L713.75,366.00 L709.75,366.25 L707.75,367.75 L707.25,366.50 Z" fill="#2f2f2f" fill-rule="evenodd" />
  <path d="M689.00,366.25 L685.75,368.75 L684.25,371.75 L684.25,377.00 L685.50,379.50 L688.75,382.25 L694.25,382.50 L698.50,378.50 L699.50,375.25 L699.00,371.50 L697.50,368.50 L695.00,366.50 Z M691.25,366.50 L694.50,367.25 L697.00,369.50 L698.75,374.25 L696.75,379.50 L692.75,382.00 L690.75,382.00 L687.75,380.50 L684.75,375.75 L684.75,372.75 L686.25,369.75 L688.50,367.50 Z" fill="#2f2f2f" fill-rule="evenodd" />
  <path d="M655.25,366.25 L655.50,382.50 L655.75,371.50 L656.75,369.00 L660.50,366.50 L662.75,367.00 L665.25,369.50 L666.00,371.75 L666.25,382.50 L666.75,370.00 L670.00,366.75 L672.25,366.50 L674.25,367.50 L676.25,370.50 L676.25,382.25 L677.25,382.25 L677.25,372.50 L676.50,369.00 L674.75,366.75 L670.00,366.00 L666.25,369.00 L663.25,366.25 L658.75,366.25 L656.50,368.00 Z" fill="#2f2f2f" fill-rule="evenodd" />
  <path d="M625.25,366.25 L625.50,367.00 L630.75,367.00 L632.25,368.50 L633.25,372.00 L632.00,373.25 L627.00,373.25 L625.25,374.25 L623.50,377.50 L624.25,380.50 L626.50,382.50 L630.75,382.50 L632.25,381.50 L633.75,382.50 L633.50,369.00 L631.00,366.25 Z M632.25,373.75 L633.25,375.25 L632.50,380.00 L629.50,382.00 L626.25,381.25 L624.50,379.25 L624.50,376.50 L625.25,375.50 L628.25,373.75 Z" fill="#2f2f2f" fill-rule="evenodd" />
  <path d="M854.75,359.25 L851.75,360.00 L850.00,362.00 L849.25,365.75 L847.00,366.50 L849.25,368.00 L849.50,382.50 L849.75,368.25 L850.50,367.25 L854.50,367.00 L854.25,366.25 L850.50,366.25 L850.25,363.25 L852.00,360.75 L855.00,359.75 Z" fill="#2f2f2f" fill-rule="evenodd" />
  <path d="M600.75,359.25 L600.50,382.25 L601.50,382.25 L602.00,370.75 L614.00,370.50 L615.25,371.75 L615.50,382.50 L616.00,359.75 L615.00,359.50 L615.25,368.50 L614.25,370.00 L602.25,370.00 L601.50,369.25 L601.50,359.50 Z" fill="#2f2f2f" fill-rule="evenodd" />
  <path d="M577.50,345.75 L576.25,346.25 L570.75,356.00 L574.00,358.00 L581.25,348.75 L580.75,347.50 Z" fill="#2f2f2f" fill-rule="evenodd" />
  <path d="M266.50,330.50 L266.75,340.50 L315.50,340.25 L315.25,330.25 Z" fill="#2f2f2f" fill-rule="evenodd" />
  <path d="M233.00,340.25 L243.25,340.00 L243.00,310.25 L244.00,308.75 L315.25,308.75 L315.25,298.50 L233.25,298.75 Z" fill="#2f2f2f" fill-rule="evenodd" />
  <path d="M616.25,291.50 L612.50,295.75 L610.25,303.25 L610.25,326.75 L611.25,331.25 L613.25,335.50 L618.25,339.50 L626.25,341.00 L643.75,340.50 L648.75,338.50 L651.50,336.00 L653.50,332.50 L655.50,320.50 L655.50,309.50 L654.50,300.75 L651.50,293.75 L646.50,290.25 L636.50,288.75 L622.25,289.25 Z M621.75,295.75 L625.00,294.50 L640.25,294.50 L643.50,295.75 L646.25,298.50 L648.00,306.00 L648.00,324.00 L646.25,331.25 L643.25,334.25 L636.50,335.75 L624.25,335.25 L621.50,334.00 L618.75,330.75 L617.50,327.00 L617.00,316.00 L617.50,303.00 L618.75,299.00 Z" fill="#2f2f2f" fill-rule="evenodd" />
  <path d="M563.00,291.25 L559.25,294.50 L557.25,298.00 L555.25,309.00 L555.25,320.75 L556.25,329.25 L558.25,334.25 L562.50,338.50 L567.75,340.50 L584.00,341.00 L589.00,340.50 L594.00,338.50 L597.25,335.50 L599.50,330.50 L599.75,323.25 L599.00,322.50 L593.25,322.75 L592.00,331.00 L589.50,334.00 L586.75,335.25 L571.25,335.25 L568.00,334.00 L564.75,331.00 L562.75,324.50 L562.75,306.00 L563.50,301.25 L564.75,298.75 L566.75,296.50 L571.25,294.50 L586.25,294.75 L588.50,295.75 L591.00,298.75 L592.25,305.50 L598.50,305.50 L598.50,298.50 L596.50,294.25 L593.50,291.50 L587.75,289.25 L574.00,288.75 L568.50,289.25 Z" fill="#2f2f2f" fill-rule="evenodd" />
  <path d="M504.50,291.50 L501.25,296.00 L500.25,300.25 L500.50,303.25 L507.50,303.00 L508.50,298.25 L511.00,295.75 L514.25,294.50 L528.75,294.50 L532.00,295.75 L534.50,298.25 L536.00,301.75 L536.25,314.25 L535.25,315.00 L533.00,312.25 L527.50,310.25 L509.50,310.25 L504.25,312.25 L501.25,315.00 L499.25,319.50 L499.25,331.75 L501.25,336.00 L503.50,338.25 L508.50,340.50 L524.50,341.00 L531.00,339.50 L535.75,335.75 L536.25,340.50 L543.00,340.50 L543.00,302.75 L542.50,298.50 L540.50,294.25 L535.25,290.25 L525.75,288.75 L509.75,289.25 Z M506.50,320.50 L508.50,317.50 L512.75,315.50 L529.25,315.75 L532.50,317.25 L535.25,320.75 L536.00,324.00 L535.25,329.75 L532.50,333.25 L528.25,335.25 L511.75,335.25 L509.75,334.25 L506.50,330.00 Z" fill="#2f2f2f" fill-rule="evenodd" />
  <path d="M478.50,290.25 L470.75,288.75 L460.25,289.25 L455.50,291.25 L451.25,295.25 L450.50,294.50 L450.25,289.25 L443.50,289.50 L444.00,363.00 L450.50,363.00 L450.50,336.00 L451.25,335.00 L454.75,338.50 L459.25,340.50 L472.75,341.00 L476.50,340.50 L481.00,338.50 L483.50,336.25 L485.50,333.00 L487.50,326.25 L487.50,303.00 L484.25,294.50 Z M457.00,295.50 L460.00,294.50 L471.75,294.50 L476.25,296.50 L479.25,300.25 L480.75,309.25 L480.25,326.00 L478.25,331.25 L475.00,334.25 L468.50,335.75 L460.00,335.25 L455.75,333.25 L452.50,329.25 L450.50,319.75 L450.75,305.25 L452.50,299.50 Z" fill="#2f2f2f" fill-rule="evenodd" />
  <path d="M393.25,291.25 L390.25,294.75 L388.75,302.00 L389.25,309.25 L391.25,313.00 L394.00,315.25 L397.25,316.50 L404.00,317.50 L418.50,317.75 L421.50,318.50 L424.25,321.00 L425.25,327.75 L424.25,331.25 L420.75,334.25 L417.00,335.25 L403.75,335.00 L399.50,334.25 L396.50,332.00 L395.50,329.75 L395.25,325.00 L388.50,325.00 L388.25,331.50 L390.25,336.25 L395.00,339.50 L403.25,341.00 L418.00,341.00 L422.75,340.50 L427.50,338.50 L431.25,334.00 L432.50,329.25 L432.50,323.25 L431.50,319.00 L429.50,315.50 L424.00,312.25 L417.75,311.25 L402.25,311.00 L399.25,310.25 L396.50,307.00 L396.00,300.50 L396.75,298.00 L400.00,295.50 L404.00,294.75 L417.00,294.75 L420.50,295.50 L423.00,297.50 L424.00,302.00 L430.75,302.00 L431.25,301.00 L430.50,296.00 L429.50,294.00 L424.75,290.25 L415.50,288.75 L398.25,289.25 Z" fill="#2f2f2f" fill-rule="evenodd" />
  <path d="M843.00,287.50 L842.50,341.75 L852.50,342.25 L853.00,288.50 L852.50,287.50 Z" fill="#2f2f2f" fill-rule="evenodd" />
  <path d="M868.25,290.25 L864.25,296.00 L863.50,304.50 L873.75,304.75 L874.50,299.50 L877.25,296.75 L881.75,295.75 L891.00,295.75 L895.25,296.75 L898.00,299.25 L899.00,301.50 L899.25,309.50 L898.25,310.75 L895.25,309.25 L889.50,308.25 L876.75,308.25 L871.25,309.25 L866.50,312.00 L863.25,316.75 L862.00,322.25 L862.25,331.00 L865.25,337.50 L869.50,340.75 L875.75,342.50 L891.00,342.50 L895.00,341.50 L898.25,339.50 L899.50,342.25 L909.25,342.25 L909.50,302.00 L908.50,297.00 L906.75,293.50 L902.25,289.50 L894.75,287.25 L876.50,287.25 L872.00,288.25 Z" fill="#2f2f2f" fill-rule="evenodd" />
  <path d="M795.50,289.50 L791.25,292.75 L789.00,296.50 L787.25,301.75 L786.50,310.00 L787.25,328.25 L789.50,334.75 L792.75,338.50 L795.50,340.25 L803.75,342.50 L818.75,342.50 L823.75,341.50 L828.00,339.50 L831.50,336.00 L833.50,332.00 L834.25,321.25 L824.50,320.75 L823.75,328.50 L822.50,331.25 L820.50,333.00 L814.75,334.00 L802.75,333.00 L799.50,330.75 L797.75,327.50 L797.25,307.00 L797.75,302.50 L799.25,299.25 L802.25,296.75 L808.50,295.75 L816.75,296.00 L820.00,297.00 L822.75,300.50 L823.50,307.00 L833.00,306.75 L833.25,301.00 L831.25,294.25 L828.75,291.25 L825.75,289.25 L818.00,287.25 L803.25,287.25 Z" fill="#2f2f2f" fill-rule="evenodd" />
  <path d="M736.75,290.00 L734.00,292.75 L732.25,296.25 L732.25,304.75 L742.25,304.50 L742.50,299.75 L745.50,296.75 L749.75,295.75 L759.00,295.75 L763.25,296.75 L766.25,299.50 L767.25,303.25 L767.25,309.75 L766.25,310.75 L763.25,309.25 L757.75,308.25 L744.75,308.25 L739.50,309.25 L734.50,312.00 L731.25,316.75 L730.00,323.00 L730.25,330.50 L733.25,337.50 L737.50,340.75 L743.75,342.50 L759.00,342.50 L763.00,341.50 L766.00,339.75 L767.25,340.50 L767.50,342.25 L777.25,342.25 L777.50,301.50 L776.50,296.75 L773.00,291.25 L767.50,288.25 L759.75,287.00 L744.75,287.25 L740.00,288.25 Z" fill="#2f2f2f" fill-rule="evenodd" />
  <path d="M332.50,267.00 L332.25,340.50 L379.25,340.50 L379.25,334.00 L340.75,334.00 L339.75,333.00 L339.75,306.75 L340.75,305.75 L377.50,305.50 L377.00,299.50 L340.50,299.50 L339.75,298.75 L339.75,274.25 L340.75,273.50 L379.25,273.50 L379.50,267.25 Z" fill="#2f2f2f" fill-rule="evenodd" />
  <path d="M233.00,267.50 L233.00,276.50 L233.75,277.25 L315.50,276.75 L315.25,267.00 Z" fill="#2f2f2f" fill-rule="evenodd" />
  <path d="M842.75,265.25 L842.50,276.25 L852.75,276.50 L853.00,265.50 Z" fill="#2f2f2f" fill-rule="evenodd" />
  <path d="M920.75,265.00 L920.00,265.75 L920.25,342.00 L930.50,342.25 L930.75,265.50 Z" fill="#2f2f2f" fill-rule="evenodd" />
  <path d="M725.00,265.25 L677.25,265.25 L677.50,342.25 L688.25,341.75 L688.25,309.25 L689.25,308.25 L724.25,307.75 L724.25,299.25 L723.25,298.75 L689.00,298.75 L688.25,297.75 L688.25,276.25 L689.25,275.25 L724.75,275.25 Z" fill="#2f2f2f" fill-rule="evenodd" />
</svg>
